<svg xmlns="http://www.w3.org/2000/svg" width="32" height="32" viewBox="0 0 32 32" fill="none">
  <!-- White circular background -->
  <circle cx="16" cy="16" r="16" fill="white"/>
  <!-- Building icon in dark gray, centered and scaled appropriately -->
  <path d="M10 24V10.5C10 10.2239 10.2239 10 10.5 10H14.5C14.7761 10 15 10.2239 15 10.5V13M10 24H8M10 24H15M22 24V16.5C22 16.2239 21.7761 16 21.5 16H15M22 24H24M22 24H15M15 24V13M15 13H17M12 13H13M12 16H13M12 19H13M19 19H20M19 22H20" stroke="#1F2937" stroke-width="1.5" stroke-linecap="round" stroke-linejoin="round"/>
</svg>